<?xml version="1.0" encoding="utf-8"?>
<!-- Generator: Adobe Illustrator 24.0.1, SVG Export Plug-In . SVG Version: 6.00 Build 0)  -->
<svg version="1.1" id="Layer_1" xmlns="http://www.w3.org/2000/svg" xmlns:xlink="http://www.w3.org/1999/xlink" x="0px" y="0px"
	 viewBox="0 0 284 70" style="enable-background:new 0 0 284 70;" xml:space="preserve">
<style type="text/css">
	.st0{fill:#0B0A1C;stroke:#0B0A1C;stroke-width:2.7618;stroke-miterlimit:10;}
	.st1{fill:#0B0A1C;stroke:#0B0A1C;stroke-width:3;stroke-miterlimit:10;}
</style>
<g>
	<polygon class="st0" points="10.07,63.73 10.02,58.25 7.77,58.28 7.85,66 15.57,65.92 15.55,63.67 	"/>
	<polygon class="st0" points="9.47,7.71 14.94,7.66 14.92,5.4 7.2,5.48 7.28,13.21 9.53,13.19 	"/>
	<polygon class="st0" points="276.54,12.58 278.79,12.56 278.71,4.83 270.98,4.91 271.01,7.16 276.48,7.11 	"/>
	<polygon class="st0" points="279.28,57.62 277.03,57.64 277.09,63.12 271.62,63.18 271.64,65.43 279.36,65.35 	"/>
</g>
<g>
	
		<rect x="217.1" y="34.58" transform="matrix(0.7001 -0.7141 0.7141 0.7001 47.227 183.2708)" class="st1" width="49.37" height="1.67"/>
	
		<rect x="240.94" y="10.73" transform="matrix(0.6997 -0.7145 0.7145 0.6997 47.3109 183.3813)" class="st1" width="1.67" height="49.36"/>
</g>
<g>
	<path d="M31.82,48.23v-3.47l10.73-16.85H31.82v-4.08h16.07v3.55L37.33,44.15h10.56v4.08H31.82z"/>
	<path d="M70.77,48.23l-1.79-5.18h-9.26l-1.79,5.18h-4.57l8.52-24.39h4.98l8.48,24.39H70.77z M64.37,29.35l-3.3,9.63h6.57
		L64.37,29.35z"/>
	<path d="M98.99,48.23V31.55l-4.85,10.69h-2.81l-4.85-10.65v16.64h-4.28V23.84h4.89l5.71,12.03l5.63-12.03h4.85v24.39H98.99z"/>
	<path d="M125.99,48.23l-8.44-10.2h-0.45v10.2h-4.28V23.84h4.28V34h0.41c2.81-3.34,5.67-6.85,8.44-10.16h5.26L121.05,36
		c3.1,3.71,7.22,8.73,10.2,12.24H125.99z"/>
	<path d="M151.19,48.23l-8.44-16.19v16.19h-4.28V23.84h4.61l8.36,16.4v-16.4h4.28v24.39H151.19z"/>
	<path d="M165.26,48.23V23.84h4.28v24.39H165.26z"/>
	<path d="M191.64,44.81c-0.49,0.69-2.04,2.41-2.9,2.9c-0.69,0.41-1.67,0.73-2.53,0.73h-3.02c-2.37,0-4.12-1.92-5.22-3.39
		c-0.12-0.16-0.33-0.49-0.82-1.55l4.12-1.1c0.41,0.9,1.14,1.67,1.63,1.92c0.04,0.04,0.41,0.04,0.33,0.04h2.77
		c0.29,0.04,2.04-1.67,2.04-1.92v-18.6h4.28v18.64C192.34,43.26,192.13,44.07,191.64,44.81z"/>
</g>
</svg>
